#!OML:ASF H:\Dans Jumps\Project 1\Capture day 1\Session 1\subject.ASF
:FULLY-SPECIFIED
:DEGREES
504
root 0.0272867 17.4116 -7.1314 9.86274 -1.90867 -0.776253
lowerback 5.2593 0.0339889 -1.10399
upperback 5.80658 -0.0182688 1.44767
thorax 3.0408 -0.0823839 2.11159
lowerneck -13.2407 0.415428 -1.52616
upperneck 32.4368 1.01334 -0.0173352
head 13.0365 0.250165 0.409251
rclavicle 2.78299e-015 5.56597e-015
rhumerus -26.7537 -11.2758 -81.2485
rradius 27.1144
rwrist 28.5584
rhand -18.5793 -23.3807
rfingers 7.12502
rthumb 7.71124 -53.2201
lclavicle 2.78299e-015 5.56597e-015
lhumerus -24.9193 -7.63414 90.7565
lradius 28.0416
lwrist 18.0195
lhand -27.5502 -5.32108
lfingers 7.12502
lthumb -0.951529 24.6565
rfemur -24.9477 -2.71475 19.1581
rtibia 34.1996
rfoot -17.4622 -1.5431
rtoes 3.99688
lfemur -23.1468 5.95424 -17.9653
ltibia 30.1483
lfoot -14.3979 6.58317
ltoes -0.23672
505
root 0.02836 17.4128 -7.1314 9.84882 -1.89758 -0.768688
lowerback 5.24174 0.0297341 -1.10582
upperback 5.79665 -0.0238179 1.44854
thorax 3.04049 -0.0851456 2.11362
lowerneck -13.2709 0.416624 -1.50724
upperneck 32.4843 1.01976 -0.0436896
head 13.0635 0.251336 0.396979
rclavicle -7.25564e-015 -1.98785e-014
rhumerus -26.7174 -11.1474 -81.3005
rradius 27.1988
rwrist 28.4361
rhand -18.5892 -23.3959
rfingers 7.12502
rthumb 7.70165 -53.2356
lclavicle -7.25564e-015 -1.98785e-014
lhumerus -24.9294 -7.74266 90.802
lradius 28.0701
lwrist 18.0463
lhand -27.5355 -5.34141
lfingers 7.12502
lthumb -0.937333 24.6363
rfemur -24.9086 -2.71578 19.1439
rtibia 34.1634
rfoot -17.4572 -1.54557
rtoes 4.05432
lfemur -23.11 5.96088 -17.9767
ltibia 30.1043
lfoot -14.3917 6.55684
ltoes -0.206088
506
root 0.0293582 17.414 -7.13168 9.8361 -1.88527 -0.761594
lowerback 5.22461 0.0267599 -1.10529
upperback 5.78714 -0.0275703 1.4478
thorax 3.04029 -0.0868921 2.11262
lowerneck -13.2888 0.414619 -1.49353
upperneck 32.5183 1.01962 -0.0610451
head 13.0821 0.250345 0.388027
rclavicle -1.39149e-015 -1.53064e-014
rhumerus -26.6761 -11.0288 -81.3511
rradius 27.275
rwrist 28.3186
rhand -18.5937 -23.4176
rfingers 7.12502
rthumb 7.69734 -53.2575
lclavicle -1.39149e-015 -1.53064e-014
lhumerus -24.9385 -7.85314 90.8442
lradius 28.0984
lwrist 18.0497
lhand -27.5275 -5.40466
lfingers 7.12502
lthumb -0.929552 24.5731
rfemur -24.8738 -2.71714 19.1318
rtibia 34.1275
rfoot -17.4491 -1.55683
rtoes 4.06584
lfemur -23.0762 5.97127 -17.9881
ltibia 30.0598
lfoot -14.3847 6.52675
ltoes -0.180223
507
root 0.0302924 17.4152 -7.13212 9.82244 -1.87219 -0.755126
lowerback 5.20855 0.0240289 -1.1042
upperback 5.77979 -0.0310085 1.44729
thorax 3.04173 -0.0884983 2.11155
lowerneck -13.3063 0.412211 -1.48182
upperneck 32.5492 1.01865 -0.0761221
head 13.0992 0.249087 0.380169
rclavicle -7.7526e-015 7.55382e-015
rhumerus -26.6297 -10.9236 -81.397
rradius 27.3431
rwrist 28.2134
rhand -18.5982 -23.4453
rfingers 7.12502
rthumb 7.69301 -53.2853
lclavicle -7.7526e-015 7.55382e-015
lhumerus -24.9433 -7.96566 90.8864
lradius 28.1232
lwrist 18.042
lhand -27.5159 -5.47841
lfingers 7.12502
lthumb -0.918329 24.4994
rfemur -24.8384 -2.71745 19.1204
rtibia 34.0921
rfoot -17.442 -1.56863
rtoes 4.08126
lfemur -23.0423 5.98186 -17.9987
ltibia 30.0158
lfoot -14.377 6.49682
ltoes -0.165127
508
root 0.0311678 17.4163 -7.13272 9.80986 -1.85819 -0.747885
lowerback 5.19006 0.0220552 -1.10257
upperback 5.77417 -0.0334039 1.44575
thorax 3.04628 -0.089582 2.10908
lowerneck -13.3112 0.408606 -1.48029
upperneck 32.5683 1.01447 -0.0793196
head 13.1085 0.246883 0.37814
rclavicle -9.34288e-015 8.94531e-015
rhumerus -26.5786 -10.8327 -81.4389
rradius 27.4023
rwrist 28.1234
rhand -18.6094 -23.4713
rfingers 7.12502
rthumb 7.68221 -53.3118
lclavicle -9.34288e-015 8.94531e-015
lhumerus -24.9427 -8.0774 90.9261
lradius 28.1438
lwrist 18.0226
lhand -27.4714 -5.47848
lfingers 7.12502
lthumb -0.875417 24.4995
rfemur -24.8051 -2.71689 19.1083
rtibia 34.0576
rfoot -17.4363 -1.58156
rtoes 4.09533
lfemur -23.0111 5.99339 -18.0104
ltibia 29.9733
lfoot -14.3692 6.46661
ltoes -0.151819
509
root 0.0319341 17.4174 -7.13349 9.79626 -1.84471 -0.741083
lowerback 5.17167 0.0200465 -1.10241
upperback 5.7711 -0.0359266 1.44525
thorax 3.05346 -0.0908506 2.10852
lowerneck -13.3067 0.405745 -1.49202
upperneck 32.5797 1.01147 -0.0725762
head 13.1123 0.244976 0.38241
rclavicle 3.27995e-015 1.17283e-014
rhumerus -26.5217 -10.7549 -81.4755
rradius 27.4536
rwrist 28.0505
rhand -18.622 -23.4966
rfingers 7.12502
rthumb 7.67003 -53.3375
lclavicle 3.27995e-015 1.17283e-014
lhumerus -24.9335 -8.18846 90.965
lradius 28.157
lwrist 18.0029
lhand -27.4316 -5.45416
lfingers 7.12502
lthumb -0.836895 24.5239
rfemur -24.7718 -2.71252 19.0967
rtibia 34.0237
rfoot -17.4285 -1.59754
rtoes 4.10261
lfemur -22.98 6.00288 -18.0207
ltibia 29.9323
lfoot -14.3621 6.43732
ltoes -0.134109
